<?xml version="1.0" encoding="UTF-8"?> <svg xmlns="http://www.w3.org/2000/svg" xmlns:xlink="http://www.w3.org/1999/xlink" id="Capa_1" x="0px" y="0px" viewBox="0 0 480 480" style="enable-background:new 0 0 480 480;" xml:space="preserve"> <g> <g> <path d="M480,248c0-13.232-10.768-24-24-24H326.16c6.408-18.016,9.84-36.768,9.84-56C336,75.368,260.64,0,168,0S0,75.368,0,168 s75.36,168,168,168v40c0,6.168,2.408,11.744,6.24,16c-3.84,4.256-6.24,9.832-6.24,16v48c0,13.232,10.768,24,24,24h264 c13.232,0,24-10.768,24-24v-48c0-6.168-2.408-11.744-6.24-16c3.84-4.256,6.24-9.832,6.24-16v-48c0-6.168-2.408-11.744-6.24-16 c3.84-4.256,6.24-9.832,6.24-16V248z M319.592,160h-79.936c-0.96-23.232-5.856-45.08-12.712-64.72 c18.568-7.536,35.648-18.624,50.232-32.792C301.888,88.056,317.616,122.216,319.592,160z M319.632,176 c-0.864,16.48-4.224,32.592-10.352,48h-77.296c4.456-16.288,7.024-32.344,7.68-48H319.632z M265.448,51.496 C252.552,63.88,237.52,73.528,221.2,80.2c-11.536-27.608-25.896-49.704-35.768-63.12C215.68,20.552,243.248,32.896,265.448,51.496 z M223.704,160.008H112.288c0.968-21.16,5.592-41.256,11.984-59.44c14.08,4.08,28.776,6.264,43.728,6.264 c14.952,0,29.648-2.176,43.72-6.264C218.112,118.744,222.744,138.84,223.704,160.008z M205.904,85.424 c-12.24,3.424-24.944,5.4-37.904,5.4c-12.96,0-25.664-1.976-37.904-5.4C142.92,55.168,159.336,31.872,168,20.672 C176.664,31.872,193.08,55.168,205.904,85.424z M150.568,17.08c-9.872,13.416-24.232,35.512-35.768,63.12 c-16.32-6.672-31.352-16.32-44.248-28.704C92.752,32.896,120.32,20.552,150.568,17.08z M58.824,62.496 c14.584,14.16,31.664,25.248,50.232,32.792c-6.856,19.632-11.752,41.488-12.712,64.72H16.408 C18.384,122.216,34.112,88.056,58.824,62.496z M16.408,176h79.936c1.016,24.568,6.4,47.64,13.864,68.128 c-18.512,6.824-35.76,16.928-50.872,29.952C34.32,248.456,18.4,214.056,16.408,176z M71.192,285.088 c13.424-11.28,28.608-20.072,44.92-26.032c11.288,26.12,24.96,46.968,34.456,59.864C120.624,315.48,93.28,303.376,71.192,285.088z M168,315.344c-8.296-10.728-23.696-32.608-36.264-61.032C143.528,251.4,155.688,250.008,168,250v46 c0,1.376,0.152,2.728,0.384,4.072c0.032,0.2,0.048,0.408,0.088,0.608c0.08,0.392,0.224,0.752,0.32,1.136 c0.176,0.696,0.368,1.392,0.6,2.064c0.136,0.392,0.248,0.784,0.4,1.168c0.136,0.328,0.304,0.632,0.448,0.952 c0.224,0.48,0.48,0.952,0.736,1.416c0.296,0.544,0.568,1.088,0.904,1.6c0.136,0.216,0.272,0.432,0.416,0.64 C170.72,311.792,169.28,313.704,168,315.344z M172.664,233.904c-16.008-0.448-31.856,1.36-47.08,5.352 c-7.08-19.152-12.264-40.616-13.304-63.256h111.408c-0.712,15.592-3.368,31.656-8.184,48H192 C184.048,224,177.04,227.928,172.664,233.904z M464,456c0,4.416-3.592,8-8,8H192c-4.408,0-8-3.584-8-8v-48c0-4.416,3.592-8,8-8 h264c4.408,0,8,3.584,8,8V456z M464,376c0,4.416-3.592,8-8,8H192c-4.408,0-8-3.584-8-8v-48c0-0.048,0.024-0.088,0.024-0.136 c0.08-4.336,3.648-7.864,7.976-7.864h264c4.408,0,8,3.584,8,8V376z M464,296c0,4.416-3.592,8-8,8H192 c-2.008,0-3.792-0.808-5.2-2.04c-0.224-0.192-0.448-0.376-0.648-0.592c-0.568-0.616-1.048-1.304-1.4-2.072 c-0.08-0.168-0.128-0.344-0.192-0.512c-0.328-0.872-0.56-1.8-0.56-2.784v-48c0-4.416,3.592-8,8-8h29.408H314.6H456 c4.408,0,8,3.584,8,8V296z"></path> </g> </g> <g> <g> <rect x="432" y="264" width="16" height="16"></rect> </g> </g> <g> <g> <rect x="200" y="264" width="136" height="16"></rect> </g> </g> <g> <g> <rect x="432" y="344" width="16" height="16"></rect> </g> </g> <g> <g> <rect x="200" y="344" width="136" height="16"></rect> </g> </g> <g> <g> <rect x="432" y="424" width="16" height="16"></rect> </g> </g> <g> <g> <rect x="200" y="424" width="136" height="16"></rect> </g> </g> <g> <g> <rect x="336" y="96" width="16" height="16"></rect> </g> </g> <g> <g> <rect x="368" y="96" width="16" height="16"></rect> </g> </g> <g> <g> <rect x="400" y="96" width="16" height="16"></rect> </g> </g> <g> <g> <rect x="432" y="96" width="16" height="16"></rect> </g> </g> <g> <g> <rect x="432" y="128" width="16" height="16"></rect> </g> </g> <g> <g> <rect x="432" y="160" width="16" height="16"></rect> </g> </g> <g> <g> <rect x="432" y="192" width="16" height="16"></rect> </g> </g> <g> <g> <rect x="136" y="424" width="16" height="16"></rect> </g> </g> <g> <g> <rect x="104" y="424" width="16" height="16"></rect> </g> </g> <g> <g> <rect x="72" y="424" width="16" height="16"></rect> </g> </g> <g> <g> <rect x="72" y="392" width="16" height="16"></rect> </g> </g> <g> <g> <rect x="72" y="360" width="16" height="16"></rect> </g> </g> <g> <g> <rect x="72" y="328" width="16" height="16"></rect> </g> </g> <g> </g> <g> </g> <g> </g> <g> </g> <g> </g> <g> </g> <g> </g> <g> </g> <g> </g> <g> </g> <g> </g> <g> </g> <g> </g> <g> </g> <g> </g> </svg> 